<svg xmlns="http://www.w3.org/2000/svg" width="1187" height="1187" viewBox="0 0 1187 1187" version="1.1"><path d="M 584.764 69.409 C 569.635 73.480, 498.304 138.419, 476.112 168.326 C 474 171.172, 471.090 174.671, 469.647 176.103 L 467.021 178.706 470.761 180.308 C 472.817 181.189, 478.775 183.697, 484 185.883 C 489.225 188.068, 496.200 191.291, 499.500 193.046 C 502.800 194.800, 508.812 197.999, 512.860 200.155 C 536.518 212.755, 562.576 233.571, 585.089 257.854 L 595.500 269.085 596.802 263.292 C 599.918 249.438, 601.223 242.861, 602.815 233 C 603.748 227.225, 604.789 222.050, 605.130 221.500 C 605.471 220.950, 606.075 218.025, 606.473 215 C 606.870 211.975, 607.360 208.600, 607.562 207.500 C 607.763 206.400, 608.411 198.750, 609 190.500 C 609.590 182.250, 610.546 171.900, 611.124 167.500 C 614.078 145.051, 611.106 89.408, 606.451 80 C 603.444 73.924, 591.903 65.767, 589.568 68.067 C 589.531 68.105, 587.369 68.708, 584.764 69.409 M 244.647 69.706 C 240.420 70.368, 233.359 77.898, 232.028 83.161 C 231.425 85.548, 230.408 88.625, 229.768 90 C 228.146 93.485, 227.552 133.852, 228.929 147 C 232.824 184.191, 241.475 235.764, 245.372 245.034 L 246.692 248.172 250.495 242.336 C 273.589 206.900, 315.738 172.163, 347.250 162.594 C 350.160 161.710, 349.478 160.638, 336.250 145.306 C 288.900 90.424, 260.741 67.184, 244.647 69.706 M 1004 135.303 C 1003.725 135.579, 999.286 136.315, 994.136 136.937 C 950.676 142.189, 918.828 168.587, 918.655 199.500 C 918.507 226.073, 936.139 234.725, 967.500 223.467 C 995.628 213.371, 994.235 213.702, 1009 213.597 C 1107.462 212.892, 1128.662 369.058, 1039.530 438.491 C 1022.865 451.472, 988.051 471, 981.573 471 C 979.532 471, 979.913 472.569, 983.964 480.842 C 985.487 483.954, 987.957 489.425, 989.451 493 C 990.946 496.575, 992.782 500.850, 993.533 502.500 C 994.284 504.150, 996.074 508.425, 997.512 512 C 998.949 515.575, 1000.772 519.918, 1001.562 521.651 C 1002.353 523.384, 1003 525.096, 1003 525.456 C 1003 526.126, 1005.304 531.448, 1009.622 540.750 C 1011.972 545.813, 1013.270 546.990, 1014.432 545.111 C 1014.734 544.622, 1016.214 543.912, 1017.722 543.534 C 1020.438 542.852, 1037.875 534.338, 1047.500 528.994 C 1063.983 519.841, 1078.831 509.678, 1090.493 499.564 C 1094.339 496.229, 1098.790 492.375, 1100.383 491 C 1125.110 469.667, 1154.387 422.056, 1162.446 390.071 C 1163.218 387.007, 1164.300 382.700, 1164.849 380.500 C 1180.964 316.002, 1167.653 244.350, 1131.088 198.761 C 1102.097 162.615, 1068.775 141.946, 1031.500 136.987 C 1020.898 135.576, 1004.714 134.585, 1004 135.303 M 266.431 292.612 C 266.094 293.651, 265.417 295.400, 264.927 296.500 C 258.808 310.228, 257.552 344.809, 262.573 361.292 C 275.473 403.637, 317.961 428.451, 357.671 416.830 L 361.843 415.610 362.530 406.440 C 363.467 393.942, 360.270 366.642, 357.032 359.500 C 356.534 358.400, 355.811 356.375, 355.425 355 C 349.042 332.215, 315.752 298, 299.965 298 C 299.326 298, 297.384 297.373, 295.651 296.607 C 286.116 292.393, 267.335 289.825, 266.431 292.612 M 507 301.687 C 501.496 302.600, 486.438 306.329, 485.500 307.012 C 484.950 307.412, 482.700 308.317, 480.500 309.024 C 457.663 316.358, 421 354.719, 421 371.279 C 421 372.006, 420.581 373.028, 420.068 373.550 C 417.754 375.910, 413.193 400.385, 413.066 411.129 C 412.993 417.362, 412.175 416.604, 423 420.334 C 441.397 426.674, 472.144 423.544, 492.459 413.264 C 524.391 397.105, 545.584 355.754, 545.949 308.897 L 546 302.293 538.349 301.647 C 530.263 300.963, 511.216 300.988, 507 301.687 M 323.267 344.889 C 312.374 361.528, 316.633 388.599, 330.083 388.217 C 343.719 387.829, 344.251 353.804, 330.798 342.483 C 326.931 339.230, 326.983 339.214, 323.267 344.889 M 467.166 347.698 C 457.102 359.172, 455.941 382.197, 465.012 390.392 C 481.109 404.934, 490.254 365.744, 474.614 349.250 C 469.872 344.249, 470.141 344.305, 467.166 347.698 M 531.500 474.825 L 523.500 476.449 531.500 477.144 C 574.779 480.904, 610.367 502.933, 654.292 553.150 C 665.412 565.864, 665.794 566.167, 663.415 560.404 C 635.822 493.556, 588.970 463.161, 531.500 474.825 M 212 496.020 C 196.040 499.390, 190.892 501.003, 179.133 506.319 C 129.888 528.582, 103.589 573.396, 120.211 606.724 C 126.178 618.688, 138.194 624.712, 145.038 619.170 L 147.298 617.340 145.149 610.976 C 141.440 599.991, 142.836 583.953, 148.448 573.101 C 151.065 568.039, 151.201 569.811, 149.021 580.595 C 144.379 603.560, 150.154 621.324, 164.868 629.331 C 175.492 635.114, 193.425 629.876, 188.539 622.418 C 183.117 614.145, 181.522 599.331, 184.889 588.542 C 187.739 579.410, 188.500 580.824, 188.500 595.252 C 188.501 639.686, 227.810 647.224, 247.155 606.500 C 248.984 602.650, 250.551 599.359, 250.637 599.187 C 250.723 599.014, 255.677 599.816, 261.647 600.969 C 275.035 603.555, 285.224 605.284, 299.500 607.396 C 305.550 608.290, 312.750 609.480, 315.500 610.040 C 320.020 610.960, 329.797 612.232, 343.500 613.684 C 349.386 614.308, 351 615.942, 351 621.275 C 351 642.627, 367.799 664.112, 379.907 658.248 C 383.584 656.467, 383.769 654.637, 381.418 643.257 C 379.613 634.520, 381.220 621.369, 385.053 613.500 L 387.001 609.500 386.251 618 C 383.337 650.992, 395.450 672.404, 417.067 672.475 C 427.481 672.509, 438.996 665.457, 435.069 661.450 C 431.021 657.319, 428.822 634.910, 431.633 626.428 C 434.230 618.589, 435.285 618.615, 434.543 626.500 C 429.969 675.099, 472.594 680.565, 499.153 634.784 L 504.209 626.069 509.244 630.284 C 512.014 632.603, 515.971 635.973, 518.038 637.774 C 528.435 646.833, 568.598 670, 573.904 670 C 574.615 670, 576.616 670.663, 578.349 671.473 C 581.397 672.897, 591.347 675.622, 597.500 676.717 C 601.532 677.435, 602.681 678.499, 604.100 682.830 C 606.611 690.496, 623.770 725.340, 633.977 743.500 C 647.481 767.525, 671.581 803.348, 678.044 809 C 678.359 809.275, 679.374 810.608, 680.300 811.961 C 698.856 839.079, 739.447 860.347, 777.651 862.969 C 791.629 863.929, 789.894 861.437, 792.088 883.701 C 799.586 959.766, 813.020 1002.692, 831.957 1011.094 C 838.388 1013.946, 846.698 1010.018, 844.117 1005.346 C 840.908 999.538, 837.161 986.506, 838.356 985.311 C 838.557 985.110, 840.124 987.882, 841.838 991.471 C 850.050 1008.661, 864.427 1015.929, 877.403 1009.448 C 885.795 1005.257, 886.416 1003.817, 881.700 999.493 C 876.967 995.155, 872.413 985.535, 871.052 977 C 869.269 965.824, 869.712 965.335, 874.038 973.696 C 887.120 998.979, 912.713 1005.030, 920.485 984.678 C 924.161 975.052, 921.529 949.093, 914.941 930 C 913.897 926.975, 912.346 922.475, 911.494 920 C 910.643 917.525, 909.549 914.600, 909.063 913.500 C 904.840 903.934, 903.038 900.031, 898.211 890 C 895.167 883.675, 887.740 869.500, 881.706 858.500 C 875.673 847.500, 868.487 834.225, 865.739 829 C 862.991 823.775, 859.275 816.973, 857.481 813.884 C 855.688 810.795, 853.890 807.195, 853.488 805.884 C 853.085 804.573, 852.301 802.932, 851.745 802.238 C 851.190 801.544, 850.007 799.519, 849.118 797.738 C 847.283 794.066, 846.687 794.005, 832.500 796.025 C 823.395 797.322, 792.227 796.684, 787.500 795.105 C 785.850 794.553, 780.225 793.110, 775 791.898 C 718.620 778.819, 677.742 739.733, 629.213 652.500 C 625.363 645.580, 610.403 614.848, 600.980 594.500 C 573.976 536.196, 553.513 516.768, 506.500 504.805 C 475.667 496.958, 424.011 508.024, 402.885 527 C 401.967 527.825, 399.320 529.850, 397.003 531.500 C 382.113 542.103, 356.044 578.515, 356.005 588.764 C 356.002 589.459, 355.580 590.809, 355.066 591.764 C 353.781 594.154, 352 602.278, 352 605.752 C 352 622.377, 316.713 585.868, 296.181 548 C 294.839 545.525, 292.449 541.565, 290.870 539.200 C 289.292 536.835, 288 534.625, 288 534.289 C 288 533.077, 276.494 518.371, 271.058 512.635 C 254.883 495.566, 237.420 490.653, 212 496.020 M 983.500 727.196 C 977.315 728.733, 963.616 733.178, 962.500 734.010 C 961.950 734.420, 960.375 735.094, 959 735.507 C 956.522 736.253, 942.307 744.337, 937.171 747.921 C 922 758.509, 892.397 777.319, 884.263 781.539 C 882.011 782.707, 882.043 782.783, 887.865 790.109 C 902.783 808.879, 915.344 818.239, 939.149 828.325 C 941.156 829.176, 944.531 830.179, 946.649 830.554 C 948.767 830.930, 952.957 831.859, 955.960 832.619 C 958.963 833.378, 963.792 834, 966.691 834 C 971.334 834, 972.025 834.268, 972.490 836.250 C 973.192 839.238, 976.638 855.625, 978.538 865 C 979.373 869.125, 980.482 873.850, 981.001 875.500 C 981.521 877.150, 982.898 881.875, 984.062 886 C 994.584 923.280, 1007.534 945.374, 1020.984 948.996 C 1030.507 951.560, 1032.986 948.477, 1030.229 937.500 C 1027.235 925.581, 1028.003 923.700, 1032.353 932.298 C 1043.218 953.771, 1060.030 960.631, 1075.265 949.807 C 1081.365 945.473, 1081.668 942.510, 1076.534 937.376 C 1071.244 932.087, 1067.918 926.723, 1064.468 917.917 C 1060.937 908.909, 1061.347 906.246, 1065.148 913.500 C 1089.673 960.308, 1124.375 937.117, 1104.584 887.146 C 1101.986 880.587, 1091.079 859.418, 1088.022 855 C 1079.562 842.778, 1046.629 781.710, 1035.980 758.500 C 1034.213 754.650, 1031.305 748.350, 1029.517 744.500 C 1027.729 740.650, 1025.318 735.413, 1024.159 732.862 C 1022.338 728.853, 1021.541 728.127, 1018.276 727.502 C 1012.158 726.331, 987.842 726.117, 983.500 727.196 M 259.500 757.949 C 252.900 758.859, 246.825 759.875, 246 760.206 C 245.175 760.537, 243.600 761.152, 242.500 761.573 C 241.119 762.101, 242.820 762.583, 248 763.131 C 252.125 763.567, 257.075 764.392, 259 764.964 C 260.925 765.536, 266.775 766.719, 272 767.591 C 277.225 768.464, 284.650 769.801, 288.500 770.562 C 292.350 771.323, 299.325 772.613, 304 773.427 C 308.675 774.242, 314.075 775.369, 316 775.932 C 317.925 776.494, 324.450 778.107, 330.500 779.515 C 336.550 780.923, 342.806 782.495, 344.402 783.008 C 347.209 783.910, 348.479 783.672, 360.500 779.992 C 371.151 776.731, 403.321 774.121, 411.500 775.855 C 418.744 777.391, 426.594 778.357, 425.918 777.629 C 425.598 777.284, 423.348 776.586, 420.918 776.078 C 418.488 775.570, 412.225 774.066, 407 772.737 C 376.277 764.919, 356.266 761.631, 317.500 758.033 C 292.571 755.720, 275.844 755.695, 259.500 757.949 M 215 769.902 C 214.175 770.365, 211.700 771.046, 209.500 771.416 C 202.920 772.523, 187.800 777.195, 177.502 781.304 C 172.694 783.222, 151.643 794.057, 150 795.459 C 149.175 796.163, 148.050 796.910, 147.500 797.120 C 143.125 798.784, 131.166 807.924, 133.250 808.010 C 134.111 808.046, 152.613 812.179, 158 813.539 C 161.575 814.442, 167.875 815.967, 172 816.928 C 176.125 817.888, 180.175 818.943, 181 819.270 C 181.825 819.598, 185.425 820.543, 189 821.371 C 192.575 822.199, 197.975 823.552, 201 824.378 C 204.025 825.205, 210.100 826.825, 214.500 827.979 C 218.900 829.134, 224.750 830.709, 227.500 831.479 C 232.201 832.797, 235.975 833.805, 255.393 838.926 C 264.421 841.307, 263.505 841.657, 271.978 832.592 C 278.845 825.246, 296.881 810.198, 307.500 802.956 C 311.900 799.955, 315.725 797.251, 316 796.947 C 317.321 795.487, 323.923 792, 325.368 792 C 328.958 792, 326.689 790.270, 321.750 789.241 C 318.863 788.640, 312.900 787.192, 308.500 786.024 C 286.990 780.311, 259.548 774.776, 241 772.407 C 234.675 771.600, 228.118 770.503, 226.429 769.970 C 222.696 768.791, 217.040 768.758, 215 769.902 M 406 790.985 C 397.133 792.616, 379.757 797.488, 377.500 798.975 C 376.950 799.338, 373.685 800.722, 370.245 802.052 C 362.832 804.917, 362.762 804.345, 371.395 811.397 C 395.488 831.077, 410.190 849.290, 444.532 902 C 492.325 975.353, 556.728 1032.956, 615 1054.468 C 619.125 1055.991, 623.400 1057.600, 624.500 1058.044 C 654.811 1070.287, 705.474 1073.456, 729.838 1064.634 L 735.881 1062.446 722.669 1062.832 C 709.561 1063.215, 687.168 1060.306, 684.550 1057.880 C 684.028 1057.396, 682.957 1057, 682.171 1057 C 679.938 1057, 663.036 1049.540, 655.923 1045.415 C 642.542 1037.654, 620.648 1018.785, 612.302 1007.819 C 610.761 1005.795, 606.756 1000.620, 603.402 996.319 C 591.623 981.216, 573.826 951.650, 562.578 928.500 C 557.353 917.745, 548.654 899.406, 543.842 889 C 525.147 848.576, 506.841 818.836, 493 806.405 C 483.649 798.007, 484.139 798.211, 460.500 792.889 C 450.577 790.655, 414.623 789.399, 406 790.985 M 104.517 833.337 C 90.819 849.964, 73.532 878.960, 69.504 892.065 C 69.092 893.404, 68.424 894.950, 68.019 895.500 C 66.114 898.089, 64.115 906.104, 65.294 906.429 C 66.574 906.781, 71.304 908.183, 79.500 910.641 C 82.250 911.465, 87.537 913.008, 91.250 914.070 C 94.963 915.131, 101.037 916.869, 104.750 917.930 C 108.463 918.992, 113.975 920.598, 117 921.500 C 120.025 922.402, 125.425 923.977, 129 925 C 132.575 926.023, 137.975 927.598, 141 928.500 C 147.401 930.408, 165.294 935.515, 179.500 939.488 C 199.505 945.082, 201 945.321, 201 942.926 C 201 941.344, 208.544 922.816, 212.623 914.382 C 219.939 899.251, 234.119 875.969, 243.738 863.293 C 246.054 860.241, 246.098 858, 243.842 858 C 243.270 858, 241.384 857.378, 239.651 856.617 C 236.347 855.167, 228.588 852.668, 216 849 C 211.875 847.798, 205.800 845.994, 202.500 844.991 C 193.692 842.313, 185.967 840.216, 182.033 839.435 C 180.126 839.056, 177.876 838.371, 177.033 837.913 C 176.190 837.455, 173.475 836.628, 171 836.074 C 168.525 835.521, 162.675 834.123, 158 832.967 C 144.389 829.602, 123.267 824.744, 116.360 823.390 C 113.357 822.801, 112.839 823.235, 104.517 833.337 M 53.636 938.250 C 51.225 947.320, 50.018 953.294, 48.435 964 C 47.662 969.225, 46.589 975.358, 46.051 977.628 C 44.394 984.621, 43.714 1020.391, 45.017 1032 C 45.666 1037.775, 46.320 1044.515, 46.470 1046.977 C 46.744 1051.452, 46.746 1051.454, 52.122 1053.142 C 61.085 1055.956, 86.759 1065.092, 120.500 1077.474 C 160.867 1092.287, 163.071 1093.099, 165.500 1094.054 C 166.600 1094.487, 169.525 1095.517, 172 1096.345 C 174.475 1097.172, 182.318 1099.907, 189.429 1102.424 C 196.540 1104.941, 202.472 1107, 202.611 1107 C 202.914 1107, 197.156 1089.360, 195.919 1086.500 C 194.347 1082.864, 191.604 1066.258, 188.981 1044.500 C 186.899 1027.229, 188.502 994.288, 192.567 970.795 C 193.167 967.330, 193.023 967.049, 190.354 966.448 C 188.784 966.095, 185.925 965.360, 184 964.815 C 182.075 964.269, 177.125 962.945, 173 961.872 C 168.875 960.800, 163.025 959.235, 160 958.396 C 156.975 957.556, 151.575 956.191, 148 955.362 C 144.425 954.533, 140.600 953.470, 139.500 953 C 138.400 952.530, 134.575 951.477, 131 950.659 C 127.425 949.841, 121.800 948.437, 118.500 947.540 C 115.200 946.643, 108.900 945.001, 104.500 943.892 C 100.100 942.783, 94.025 941.244, 91 940.473 C 76.370 936.741, 57.080 932.104, 55.898 932.035 C 55.568 932.016, 54.549 934.813, 53.636 938.250" stroke="none" fill="#040404" fill-rule="evenodd"/><path d="M 374.500 156.577 C 340.591 161.256, 308.309 179.345, 276.489 211.496 C 268.293 219.776, 254 236.940, 254 238.500 C 254 238.852, 252.541 241.246, 250.759 243.820 C 224.466 281.783, 211.516 389.408, 226.971 441.500 C 227.461 443.150, 228.157 446.975, 228.517 450 C 230.751 468.746, 239.183 493.606, 243.548 494.314 C 259.183 496.851, 278.338 515.525, 295.027 544.500 C 298.512 550.550, 302.559 557.300, 304.020 559.500 C 305.481 561.700, 307.987 565.525, 309.589 568 C 318.438 581.678, 336.979 602.576, 345.900 608.929 C 349.701 611.635, 350.958 610.753, 350.985 605.365 C 351 602.231, 352.426 596.794, 356.196 585.500 C 358.884 577.445, 366.146 564.059, 371.500 557.290 C 372.050 556.594, 374.727 553.207, 377.448 549.763 C 391.259 532.282, 418.129 513.618, 437 508.398 C 440.025 507.561, 443.400 506.471, 444.500 505.976 C 452.903 502.194, 484.149 499.754, 496 501.955 C 511.075 504.754, 516.824 506.318, 530 511.206 C 547.531 517.710, 567.753 534.928, 580.935 554.576 C 588.204 565.409, 593.111 575.021, 608.210 608 C 626.371 647.667, 645.908 682.052, 667.364 712.108 C 679.884 729.646, 705.427 756.299, 717.575 764.500 C 720.834 766.700, 723.650 768.837, 723.833 769.250 C 724.017 769.662, 724.656 770, 725.255 770 C 725.853 770, 727.053 770.620, 727.921 771.378 C 730.249 773.410, 742.097 779.605, 749.257 782.535 C 752.691 783.940, 756.400 785.477, 757.500 785.950 C 760.750 787.349, 773.106 790.945, 778.500 792.062 C 781.250 792.632, 785.300 793.520, 787.500 794.035 C 794.643 795.710, 820.857 796.340, 831.500 795.093 C 844.775 793.538, 845.460 793.424, 853 791.517 C 875.794 785.752, 885.117 781.243, 915.342 761.363 C 924.229 755.517, 934.425 748.816, 938 746.471 C 945.503 741.550, 958.533 734, 959.523 734 C 959.894 734, 961.616 733.365, 963.349 732.588 C 975 727.368, 993.327 724.257, 1004.968 725.525 C 1059.315 731.443, 1099.186 713.733, 1127.258 671.208 C 1136.915 656.579, 1145.502 640, 1143.422 640 C 1141.857 640, 1118.225 634.808, 1109.848 632.624 C 1072.473 622.880, 1041.670 600.006, 1023.147 568.241 C 1014.592 553.572, 1001.801 526.922, 1000.524 521.110 C 1000.148 519.399, 999.427 518, 998.921 518 C 998.414 518, 998 517.300, 998 516.445 C 998 515.590, 997.053 512.777, 995.894 510.195 C 993.136 504.044, 991.850 501.111, 987.702 491.500 C 980.891 475.722, 977.532 469.273, 968.176 454 C 928.362 389.014, 904.373 372.460, 838.500 364.515 C 836.300 364.250, 826.625 363.543, 817 362.945 C 730.940 357.593, 711.788 348.829, 658.686 290.500 C 643.137 273.421, 643.086 273.361, 631.195 258 C 625.022 250.025, 617.298 240.079, 614.031 235.897 C 610.764 231.716, 607.519 227.038, 606.819 225.501 C 605.592 222.810, 605.503 222.976, 604.343 230.104 C 603.215 237.041, 600.637 250.407, 597.999 263 C 596.310 271.059, 596.195 271.026, 585.410 259.365 C 568.639 241.233, 541.865 217.988, 530.355 211.567 C 527.218 209.817, 524.810 208.349, 521.004 205.866 C 518.752 204.397, 513.722 201.620, 500 194.271 C 497.525 192.945, 490.775 189.838, 485 187.366 C 479.225 184.894, 473.600 182.474, 472.500 181.989 C 455.930 174.675, 432.724 165.790, 419.500 161.696 C 407.283 157.914, 384.004 155.266, 374.500 156.577 M 266.374 291.158 C 261.601 298.626, 257.564 322.475, 258.360 338.500 C 261.048 392.611, 305.272 429.755, 353.669 418.551 L 361.838 416.660 363.061 410.177 C 364.914 400.356, 362.610 373.643, 359.078 364 C 358.575 362.625, 357.868 360.166, 357.508 358.535 C 355.824 350.904, 347.434 334.677, 340.959 326.529 C 330.362 313.194, 320.910 306.169, 302.500 297.947 C 291.345 292.965, 268.020 288.582, 266.374 291.158 M 507 300.617 C 479.674 305.723, 461.585 315.041, 443.750 333.201 C 438.387 338.661, 434 343.553, 434 344.073 C 434 344.592, 432.643 346.891, 430.984 349.181 C 427.550 353.922, 420.443 368.319, 419.413 372.625 C 419.034 374.206, 418.374 375.951, 417.945 376.502 C 416.094 378.885, 412.208 401.571, 412.084 410.724 C 411.971 419.113, 417.626 421.890, 439.257 424.067 C 472.632 427.426, 513.535 408.732, 525.998 384.423 C 526.823 382.815, 527.807 381.266, 528.186 380.979 C 529.300 380.138, 537 363.419, 537 361.841 C 537 361.049, 537.435 359.965, 537.966 359.434 C 542.916 354.484, 549.078 302.864, 544.874 301.564 C 542.117 300.710, 510.703 299.925, 507 300.617 M 324.227 344.533 C 313.709 360.769, 317.292 387.333, 330 387.333 C 343.312 387.333, 342.538 349.245, 329.080 342.043 C 326.525 340.676, 326.826 340.521, 324.227 344.533 M 468.548 347.595 C 458.227 357.915, 456.315 380.520, 465.024 389.250 C 474.348 398.597, 483.610 385.796, 481.476 366.513 C 480.270 355.612, 472.256 343.887, 468.548 347.595 M 535 473.158 C 533.075 473.683, 530.375 474.339, 529 474.617 C 527.625 474.894, 525.487 475.328, 524.250 475.580 C 519.429 476.562, 522.334 478.003, 529.250 478.060 C 536.145 478.116, 539.317 478.547, 550.264 480.914 C 556.075 482.171, 576.307 488.999, 577 489.937 C 577.275 490.309, 579.075 491.241, 581 492.008 C 593.166 496.854, 615.745 514.338, 635.044 533.858 C 646.903 545.852, 661.964 562.828, 663.249 565.648 C 663.839 566.942, 664.892 568, 665.591 568 C 666.903 568, 666.182 563.935, 664.084 559.500 C 663.563 558.400, 661.244 553.450, 658.931 548.500 C 654.161 538.293, 648.022 527.462, 643.542 521.351 C 641.869 519.069, 639.604 515.919, 638.510 514.351 C 624.168 493.807, 599.029 477.930, 573 472.976 C 566.972 471.828, 539.395 471.961, 535 473.158 M 502.042 631.918 C 494.991 645.738, 483.578 658.171, 472.580 664.014 C 464.657 668.222, 464.662 666.464, 472.535 680.374 C 498.938 727.025, 555.140 776.491, 614.526 805.346 C 620.012 808.012, 625.287 810.602, 626.248 811.103 C 641.260 818.928, 679.656 830, 691.778 830 L 696.362 830 687.931 821.186 C 680.858 813.791, 674.047 805.720, 665.412 794.500 C 661.190 789.013, 649 770.779, 649 769.949 C 649 769.427, 648.550 769, 648 769 C 647.450 769, 647 768.540, 647 767.979 C 647 767.417, 645.937 765.279, 644.638 763.229 C 631.969 743.235, 613.903 708.571, 604.127 685.500 C 601.468 679.226, 600.815 678.430, 597.830 677.825 C 589.932 676.225, 576.592 672.288, 571.500 670.053 C 546.914 659.264, 516.959 640.546, 507.595 630.121 C 504.977 627.207, 504.340 627.413, 502.042 631.918 M 197.867 758.002 C 128.587 766.015, 65.219 828.654, 33.480 920.500 C 14.904 974.253, 16.702 1037.321, 37.084 1046.963 C 45.575 1050.980, 46.332 1050.917, 45.710 1046.250 C 43.182 1027.311, 42.844 1021.077, 43.444 1004.500 C 43.803 994.600, 44.275 985.150, 44.494 983.500 C 46.596 967.635, 48.160 958.028, 49.948 950 C 51.111 944.775, 52.499 938.512, 53.033 936.082 C 54.287 930.368, 53.778 930.588, 61.670 932.358 C 68.282 933.841, 70.808 934.455, 89 938.999 C 93.675 940.167, 99.525 941.574, 102 942.126 C 104.475 942.678, 107.175 943.403, 108 943.736 C 109.878 944.495, 122.167 947.797, 127.500 948.977 C 129.700 949.463, 136 951.068, 141.500 952.544 C 147 954.020, 153.750 955.810, 156.500 956.524 C 159.250 957.237, 165.100 958.796, 169.500 959.988 C 173.900 961.180, 180.682 962.944, 184.570 963.908 C 193.344 966.082, 194.301 966.663, 193.616 969.396 C 188.141 991.206, 188.357 1055.246, 193.969 1074.500 C 194.450 1076.150, 196.061 1081.996, 197.549 1087.491 C 201.916 1103.620, 204.100 1107.406, 210.168 1109.365 C 226.479 1114.633, 233.671 1107.998, 227.041 1093.797 C 212.588 1062.840, 210.053 1012.335, 220.917 971.815 C 232.672 927.968, 263.405 880.725, 302.500 846.401 C 307.450 842.056, 311.725 838.254, 312 837.953 C 315.650 833.963, 352.156 809, 354.342 809 C 354.656 809, 357.080 807.721, 359.731 806.159 C 362.381 804.596, 367.689 802.097, 371.525 800.606 C 375.361 799.115, 379.400 797.455, 380.500 796.918 C 383.408 795.498, 392.654 792.955, 399 791.830 C 402.025 791.293, 406.075 790.406, 408 789.857 C 417.001 787.290, 455.703 790.070, 471.837 794.443 C 475.322 795.387, 478.358 795.976, 478.583 795.750 C 479.418 794.916, 451.667 784.834, 445 783.549 C 443.075 783.178, 440.375 782.446, 439 781.921 C 435.850 780.718, 422.292 778.292, 410.302 776.785 C 396.554 775.057, 377.888 776.999, 354.250 782.617 C 346.429 784.476, 346.072 784.434, 326.500 779.391 C 318.067 777.218, 295.777 772.661, 283 770.499 C 281.625 770.266, 276.900 769.363, 272.500 768.491 C 257.696 765.560, 247.527 763.871, 243.288 763.639 C 237.625 763.329, 237.092 762.457, 241.578 760.842 L 245.306 759.500 240.903 758.806 C 233.234 757.596, 205.802 757.084, 197.867 758.002 M 212 769.686 C 207.720 770.395, 185.438 777.186, 181.500 778.981 C 180.400 779.482, 177.025 780.905, 174 782.142 C 160.171 787.797, 131.525 805.075, 132.271 807.312 C 132.645 808.435, 133.735 808.782, 145.500 811.531 C 170.598 817.395, 198.735 824.593, 229.500 833.019 C 238.387 835.453, 248.203 838.019, 257.955 840.458 L 264.410 842.072 274.020 832.286 C 283.054 823.086, 292.972 814.450, 302.395 807.579 C 311.267 801.110, 321.665 794.381, 324.791 793.087 C 329.268 791.232, 328.379 789.774, 321.925 788.382 C 312.385 786.326, 302.561 783.833, 300.500 782.946 C 299.400 782.472, 294.900 781.373, 290.500 780.503 C 286.100 779.633, 279.350 778.261, 275.500 777.456 C 271.650 776.650, 264.225 775.289, 259 774.431 C 253.775 773.573, 247.925 772.453, 246 771.942 C 238.178 769.865, 218.719 768.574, 212 769.686 M 109.840 825.805 C 102.593 833.546, 94.848 843.855, 85.230 858.558 C 84.531 859.626, 83.265 862.017, 82.416 863.872 C 81.566 865.726, 79.846 868.876, 78.593 870.872 C 77.340 872.867, 75.025 877.425, 73.447 881 C 71.870 884.575, 70.259 887.730, 69.869 888.010 C 69.478 888.291, 68.837 889.866, 68.443 891.510 C 68.050 893.155, 67.146 895.625, 66.434 897 C 61.996 905.575, 62.469 907.397, 69.441 908.575 C 71.631 908.945, 74.115 909.634, 74.962 910.106 C 75.808 910.578, 78.975 911.610, 82 912.399 C 85.025 913.188, 90.650 914.790, 94.500 915.959 C 101.459 918.073, 106.027 919.363, 117.500 922.456 C 120.800 923.346, 124.400 924.469, 125.500 924.951 C 126.600 925.434, 129.300 926.287, 131.500 926.847 C 133.700 927.407, 138.762 928.796, 142.750 929.933 C 159.143 934.607, 163.760 935.938, 169 937.498 C 180.299 940.862, 198.818 945.892, 200.170 945.964 C 200.538 945.984, 201.610 943.638, 202.552 940.750 C 203.494 937.862, 204.563 935.050, 204.928 934.500 C 205.292 933.950, 206.627 930.800, 207.894 927.500 C 210.023 921.957, 217.838 905.476, 219.986 902 C 220.496 901.175, 223.702 895.775, 227.110 890 C 232.967 880.077, 239.284 870.511, 244.754 863.282 C 248.166 858.773, 247.636 858.197, 236.970 854.827 C 231.761 853.181, 226.600 851.440, 225.500 850.959 C 224.400 850.477, 221.475 849.596, 219 849 C 216.525 848.404, 213.600 847.516, 212.500 847.026 C 211.400 846.536, 206.900 845.159, 202.500 843.965 C 198.100 842.771, 191.612 840.940, 188.082 839.897 C 184.551 838.854, 180.914 838, 179.998 838 C 179.083 838, 177.996 837.663, 177.585 837.251 C 176.870 836.536, 169.734 834.730, 154.500 831.409 C 150.650 830.569, 146.825 829.602, 146 829.258 C 143.772 828.331, 126.414 824.480, 115.899 822.580 C 113.865 822.212, 112.546 822.914, 109.840 825.805" stroke="none" fill="#fcfcfc" fill-rule="evenodd"/></svg>