<?xml version="1.0" standalone="no"?>
<!DOCTYPE svg PUBLIC "-//W3C//DTD SVG 20010904//EN"
 "http://www.w3.org/TR/2001/REC-SVG-20010904/DTD/svg10.dtd">
<svg version="1.0" xmlns="http://www.w3.org/2000/svg"
 width="214.000000pt" height="214.000000pt" viewBox="0 0 214.000000 214.000000"
 preserveAspectRatio="xMidYMid meet">
<metadata>
Created by potrace 1.11, written by Peter Selinger 2001-2013
</metadata>
<g transform="translate(0.000000,214.000000) scale(0.100000,-0.100000)"
fill="#000000" stroke="none">
<path d="M0 1070 l0 -1070 655 0 c360 0 655 2 655 4 0 10 -115 223 -141 261
-27 40 -27 41 -8 64 10 13 19 32 19 42 0 16 -8 19 -45 19 -52 0 -84 12 -148
58 l-47 34 -30 -26 c-37 -30 -85 -41 -122 -27 -31 12 -62 54 -55 73 4 9 6 7 6
-4 2 -28 50 -58 93 -58 41 0 82 21 92 46 9 23 -177 210 -239 242 -59 30 -196
44 -210 21 -30 -48 -21 -171 20 -272 l23 -59 -36 7 c-168 30 -223 77 -238 203
-6 55 -3 67 24 125 16 35 58 106 92 157 97 144 111 183 122 324 19 265 27 326
58 419 60 180 176 387 218 387 26 0 73 -57 135 -162 37 -62 77 -126 90 -141
30 -38 101 -56 246 -64 138 -7 151 -2 231 95 30 37 89 102 131 145 61 61 83
77 106 77 40 0 69 -30 90 -93 15 -45 17 -98 18 -398 1 -317 3 -349 19 -375 11
-16 69 -78 130 -139 85 -83 121 -127 149 -180 l36 -70 1 703 0 702 -1070 0
-1070 0 0 -1070z m645 -670 l20 -25 -22 19 c-13 11 -23 24 -23 29 0 6 1 8 3 6
1 -2 11 -15 22 -29z"/>
<path d="M1366 1396 c-81 -30 -153 -115 -190 -223 l-15 -44 46 -21 c29 -13 77
-22 127 -25 69 -5 89 -2 134 17 56 24 116 83 137 134 8 18 17 56 21 84 l7 52
-39 16 c-53 23 -178 28 -228 10z m205 -31 c36 -19 38 -51 5 -120 -23 -50 -76
-115 -93 -115 -6 0 -15 18 -22 39 -6 22 -31 61 -55 88 l-44 48 -21 -25 c-31
-37 -61 -103 -61 -133 0 -30 -18 -35 -64 -17 -25 9 -25 10 -11 50 32 92 107
170 187 196 50 16 136 11 179 -11z"/>
<path d="M633 1379 c-46 -17 -53 -24 -53 -47 0 -41 54 -146 101 -197 73 -79
149 -104 243 -80 75 20 127 52 118 73 -40 94 -125 194 -201 236 -69 37 -140
43 -208 15z m170 -29 c39 -15 70 -37 109 -78 46 -48 98 -126 98 -146 0 -7 -76
-46 -88 -46 -6 0 -13 17 -17 38 -7 42 -43 108 -73 135 -19 18 -21 17 -51 -20
-17 -20 -37 -55 -44 -77 l-14 -41 -32 45 c-19 25 -46 72 -62 105 -32 67 -29
76 31 93 54 16 85 14 143 -8z"/>
<path d="M1503 909 c-65 -25 -125 -90 -144 -156 -8 -28 -14 -89 -13 -144 1
-81 5 -105 27 -152 14 -31 38 -69 54 -83 22 -21 23 -24 6 -15 -25 13 -58 56
-72 95 l-10 26 -46 -32 c-25 -17 -45 -37 -45 -43 0 -6 27 -52 59 -101 67 -102
178 -213 268 -267 l61 -37 127 0 c117 0 126 1 114 16 -20 24 -78 59 -124 74
l-39 13 34 26 c32 24 120 135 120 150 0 4 -25 18 -55 30 -30 13 -64 34 -74 47
l-19 25 -27 -25 c-52 -48 -143 -42 -185 11 -32 41 -23 46 13 7 23 -26 43 -37
73 -41 36 -5 45 -1 77 27 21 18 37 37 37 44 0 7 -15 18 -34 24 -19 7 -39 19
-45 26 -6 7 10 3 35 -10 26 -13 56 -22 68 -20 11 2 15 1 9 -1 -20 -7 -16 -19
17 -57 30 -34 103 -71 120 -61 5 3 19 31 31 63 40 105 25 283 -37 409 -30 63
-89 116 -152 137 -63 22 -165 20 -229 -5z m286 -158 c0 -14 -1 -14 -6 -1 -3 8
-10 24 -15 35 -9 20 -9 20 6 1 9 -11 16 -27 15 -35z m8 -68 c-3 -10 -5 -2 -5
17 0 19 2 27 5 18 2 -10 2 -26 0 -35z m38 -140 c0 -57 -3 -65 -30 -90 l-29
-28 24 28 c20 23 25 40 25 80 0 29 -3 66 -8 82 -6 26 -6 28 5 10 7 -11 12 -48
13 -82z"/>
<path d="M1476 59 c-12 -59 -12 -59 66 -59 l71 0 -54 38 c-30 21 -59 41 -65
45 -7 4 -14 -5 -18 -24z"/>
</g>
</svg>
